<svg xmlns="http://www.w3.org/2000/svg" viewBox="0 0 100 100">
  <g transform="translate(315 -315)">
    <circle fill="#F7F4D8" cx="-265" cy="365.068" r="50"/>
    <path fill="#0D0F0F" d="M-280.436,392.881c1.674-1.963,6.073-1.816,6.656,2.139c0.354,2.41,1,10.109,1.808,13.346 c0.427,1.713,1.257,3.156,2.339,3.227c1.922,0.123,6.614-3.75,7.614-5.566c1.773-3.229,3.058-6.877,4.27-10.785 c0.475-1.523,2.1-1.598,2.994-0.123c1.665,2.754,4.891,7.43,7.625,10.795c0.722,0.887,1.591,0.787,1.793-0.629 c0.731-5.123,1.84-11.178,3.859-16.652c0.668-1.809,2.553-2.012,4.031-1.111c0.836,0.508,3.529,1.854,4.547,2.168 c1.747,0.541,3.232,0.658,5.476-1.01c1.722-1.283,1.854-2.533,0.954-3.906c-1.847-2.82-4.365-4.994-6.375-7.91 c-1.108-1.605-0.998-2.752,0.407-3.584c3.611-2.139,6.763-4.584,9.646-6.955c1.06-0.871,1.827-2.168,2.07-4.379 c0.351-3.174,0.56-4.756-0.833-5.148c-1.367-0.391-2.198,0.59-7.983,2.088c-1.374,0.354-2.971,0.57-3.511-0.168 c-0.554-0.758-0.187-2.205,0.998-3.512c1.775-1.957,4.089-4.277,5.896-6.984c0.866-1.297,1.938-3.41,1.088-4.678 c-0.929-1.385-3.298-0.619-4.414-0.127c-1.554,0.684-4.609,1.338-6.469,1.607c-2.421,0.352-4.232,0.258-4.971-0.518 c-0.658-0.691-0.862-2.344-0.148-4.158c1.054-2.68,2.957-5.137,4.527-6.449c1.396-1.166,1.275-1.848,0.204-2.754 c-0.858-0.725-3.479-1.217-5.473-0.613c-2.937,0.891-5.728,2.352-8.333,4.311c-1.47,1.104-3.445,1.654-5.008,1.385 c-1.283-0.221-2.67-1.268-3.031-3.363c-0.801-4.66-1.85-9.357-3.03-11.992c-0.721-1.607-1.27-2.191-2.254-2.182 c-0.961,0.012-1.571,0.777-2.403,2.365c-1.322,2.527-2.68,7.619-3.695,11.809c-0.592,2.439-1.679,3.404-3.604,4.564 c-1.072,0.646-2.088,0.223-2.643-1.146c-0.553-1.361-2.465-5.932-3.086-7.799c-0.407-1.219-0.906-1.293-1.701-0.129 c-1.811,2.654-4.822,7.707-6.135,10.479c-0.775,1.637-0.941,3.164,0.073,4.195c1.356,1.377,1.884,2.063,1.109,2.863 c-0.536,0.555-2.913,0.186-5.519-0.406c-1.726-0.391-4.664-0.85-7.344,0c-2.212,0.703-3.629,1.834-3.844,3.277 c-0.172,1.158,2.106,4.43,3.443,5.557c0.989,0.834,1.446,1.512,1.547,2.236c0.203,1.479,0,3.383-0.832,4.619 c-0.438,0.65-1.83,0.666-4.62,0.832c-6.253,0.373-8.985,1.563-9.296,6.006c-0.223,3.189,2.099,5.09,5.618,4.25 c1.565-0.373,2.976-0.518,4.731-0.148c1.719,0.363,4.822,1.275,4.842,2.939c0.022,2.068-3.217,2.551-6.344,3.713 c-1.248,0.463-0.92,1.666,0.135,1.85c1.035,0.182,12.755,3.258,14.945,5.949c1.213,1.49-0.172,4.783-0.976,6.691 c-0.788,1.873-0.388,7.355,0.333,7.539c0.752,0.193,2.458-1.533,3.63-2.762C-283.607,396.469-281.977,394.686-280.436,392.881z"/>
    <path fill="none" stroke="#F7F4D8" stroke-width="2.5" stroke-miterlimit="10" d="M-245.112,365.068 c0,10.982-8.903,19.885-19.884,19.885c-10.988,0-19.891-8.9-19.891-19.885c0-10.98,8.902-19.883,19.891-19.883 C-254.016,345.186-245.112,354.088-245.112,365.068z"/>
  </g>
</svg>
